REM MD5 977bbcabdc3cf9050e63e3699718b80c
FILE "Official U.S. PlayStation Magazine Demo Disc 16 (USA).bin" BINARY
  TRACK 01 MODE2/2352
    INDEX 01 00:00:00
  TRACK 02 AUDIO
    INDEX 00 33:48:74
    INDEX 01 33:50:74
  TRACK 03 AUDIO
    INDEX 00 36:24:18
    INDEX 01 36:26:18
  TRACK 04 AUDIO
    INDEX 00 37:24:58
    INDEX 01 37:26:58
  TRACK 05 AUDIO
    INDEX 00 40:00:02
    INDEX 01 40:02:02
  TRACK 06 AUDIO
    INDEX 00 41:56:49
    INDEX 01 41:58:49
REM LEADOUT 42:04:45
